<svg width="38" height="38" viewBox="0 0 38 38" fill="none" xmlns="http://www.w3.org/2000/svg">
<g filter="url(#filter0_d_17_49)">
<path d="M29.6055 0L8.39453 0C5.97159 0 4 1.97159 4 4.39453L4 25.6055C4 28.0284 5.97159 30 8.39453 30L17.2422 30L17.2422 19.3945L13.7266 19.3945L13.7266 14.1211H17.2422V10.5469C17.2422 7.63893 19.6077 5.27344 22.5156 5.27344L27.8477 5.27344V10.5469H22.5156L22.5156 14.1211H27.8477L26.9687 19.3945H22.5156V30H29.6055C32.0284 30 34 28.0284 34 25.6055V4.39453C34 1.97159 32.0284 0 29.6055 0Z" fill="#1D1D1D"/>
</g>
<defs>
<filter id="filter0_d_17_49" x="0" y="0" width="38" height="38" filterUnits="userSpaceOnUse" color-interpolation-filters="sRGB">
<feFlood flood-opacity="0" result="BackgroundImageFix"/>
<feColorMatrix in="SourceAlpha" type="matrix" values="0 0 0 0 0 0 0 0 0 0 0 0 0 0 0 0 0 0 127 0" result="hardAlpha"/>
<feOffset dy="4"/>
<feGaussianBlur stdDeviation="2"/>
<feComposite in2="hardAlpha" operator="out"/>
<feColorMatrix type="matrix" values="0 0 0 0 0 0 0 0 0 0 0 0 0 0 0 0 0 0 0.25 0"/>
<feBlend mode="normal" in2="BackgroundImageFix" result="effect1_dropShadow_17_49"/>
<feBlend mode="normal" in="SourceGraphic" in2="effect1_dropShadow_17_49" result="shape"/>
</filter>
</defs>
</svg>
