<svg width="38" height="38" viewBox="0 0 38 38" fill="none" xmlns="http://www.w3.org/2000/svg">
<g filter="url(#filter0_d_17_53)">
<path d="M4 9.375L4 20.625C4 25.8019 8.19812 30 13.375 30L24.625 30C29.8019 30 34 25.8019 34 20.625L34 9.375C34 4.19813 29.8019 7.79513e-07 24.625 1.0058e-06L13.375 1.49755e-06C8.19812 1.72384e-06 4 4.19813 4 9.375ZM24.625 2.8125C28.2437 2.8125 31.1875 5.75625 31.1875 9.375L31.1875 20.625C31.1875 24.2437 28.2437 27.1875 24.625 27.1875L13.375 27.1875C9.75625 27.1875 6.8125 24.2438 6.8125 20.625L6.8125 9.375C6.8125 5.75625 9.75625 2.8125 13.375 2.8125L24.625 2.8125Z" fill="#1D1D1D"/>
<path d="M11.5 15C11.5 19.1419 14.8581 22.5 19 22.5C23.1419 22.5 26.5 19.1419 26.5 15C26.5 10.8581 23.1419 7.5 19 7.5C14.8581 7.5 11.5 10.8581 11.5 15ZM23.6875 15C23.6875 17.5837 21.5837 19.6875 19 19.6875C16.4144 19.6875 14.3125 17.5838 14.3125 15C14.3125 12.4163 16.4144 10.3125 19 10.3125C21.5837 10.3125 23.6875 12.4163 23.6875 15Z" fill="#1D1D1D"/>
<path d="M11.9369 6.93715C11.9369 6.38521 11.4894 5.93777 10.9375 5.93777C10.3855 5.93777 9.93811 6.38521 9.93811 6.93715C9.93811 7.48909 10.3855 7.93652 10.9375 7.93652C11.4894 7.93652 11.9369 7.48909 11.9369 6.93715Z" fill="#1D1D1D"/>
</g>
<defs>
<filter id="filter0_d_17_53" x="0" y="0" width="38" height="38" filterUnits="userSpaceOnUse" color-interpolation-filters="sRGB">
<feFlood flood-opacity="0" result="BackgroundImageFix"/>
<feColorMatrix in="SourceAlpha" type="matrix" values="0 0 0 0 0 0 0 0 0 0 0 0 0 0 0 0 0 0 127 0" result="hardAlpha"/>
<feOffset dy="4"/>
<feGaussianBlur stdDeviation="2"/>
<feComposite in2="hardAlpha" operator="out"/>
<feColorMatrix type="matrix" values="0 0 0 0 0 0 0 0 0 0 0 0 0 0 0 0 0 0 0.25 0"/>
<feBlend mode="normal" in2="BackgroundImageFix" result="effect1_dropShadow_17_53"/>
<feBlend mode="normal" in="SourceGraphic" in2="effect1_dropShadow_17_53" result="shape"/>
</filter>
</defs>
</svg>
