<svg width="38" height="38" viewBox="0 0 38 38" fill="none" xmlns="http://www.w3.org/2000/svg">
<g filter="url(#filter0_d_17_52)">
<path d="M19 30C27.2863 30 34 23.2863 34 15C34 6.71375 27.2863 0 19 0C10.7137 0 4 6.71375 4 15C4 23.2863 10.7137 30 19 30ZM10.8638 14.675L25.3263 9.09875C25.9975 8.85625 26.5837 9.2625 26.3662 10.2775L26.3675 10.2762L23.905 21.8775C23.7225 22.7 23.2338 22.9 22.55 22.5125L18.8 19.7487L16.9912 21.4913C16.7912 21.6913 16.6225 21.86 16.235 21.86L16.5013 18.0438L23.4512 11.765C23.7537 11.4987 23.3837 11.3488 22.985 11.6138L14.3963 17.0212L10.6938 15.8662C9.89 15.6112 9.8725 15.0625 10.8638 14.675V14.675Z" fill="#1D1D1D"/>
</g>
<defs>
<filter id="filter0_d_17_52" x="0" y="0" width="38" height="38" filterUnits="userSpaceOnUse" color-interpolation-filters="sRGB">
<feFlood flood-opacity="0" result="BackgroundImageFix"/>
<feColorMatrix in="SourceAlpha" type="matrix" values="0 0 0 0 0 0 0 0 0 0 0 0 0 0 0 0 0 0 127 0" result="hardAlpha"/>
<feOffset dy="4"/>
<feGaussianBlur stdDeviation="2"/>
<feComposite in2="hardAlpha" operator="out"/>
<feColorMatrix type="matrix" values="0 0 0 0 0 0 0 0 0 0 0 0 0 0 0 0 0 0 0.25 0"/>
<feBlend mode="normal" in2="BackgroundImageFix" result="effect1_dropShadow_17_52"/>
<feBlend mode="normal" in="SourceGraphic" in2="effect1_dropShadow_17_52" result="shape"/>
</filter>
</defs>
</svg>
