<svg width="49" height="64" viewBox="0 0 49 64" fill="none" xmlns="http://www.w3.org/2000/svg">
<path fill-rule="evenodd" clip-rule="evenodd" d="M48.5 17V55C48.5 57.1217 47.6572 59.1566 46.1569 60.6569C44.6566 62.1571 42.6217 63 40.5 63H10V59C11.0609 59 42.5783 58.5786 43.3284 57.8284C44.0786 57.0783 44.5 56.0609 44.5 55V17H36.5C34.9087 17 33.3826 16.3679 32.2574 15.2426C31.1321 14.1174 30.5 12.5913 30.5 11V3H8.5C7.43913 3 6.42172 3.42143 5.67157 4.17157C4.92143 4.92172 4.5 5.93913 4.5 7L4.5 43H0.5V7C0.5 4.87827 1.34286 2.84344 2.84315 1.34315C4.34344 -0.157145 6.37827 -1 8.5 -1H30.5L48.5 17ZM0.5 43H4.5L10 59V63H1.5C0.980816 63.8013 2.38176 62.6338 1.5 63C1.52608 63.9544 2.01918 62.1987 1.5 63C1.944 63.756 1.5 61.976 1.5 63C1.0548 62.2339 0.5 44 0.5 43ZM10 59L4.5 43C3.99999 43 1.5 63 1.5 63C1.5 62.144 2.02 63.452 1.5 63C2.016 62.576 1.5 63.84 1.5 63L10 59Z" fill="#1D1D1D"/>
</svg>
